<?xml version="1.0" encoding="UTF-8" standalone="no"?>
<svg
   xmlns:dc="http://purl.org/dc/elements/1.1/"
   xmlns:cc="http://creativecommons.org/ns#"
   xmlns:rdf="http://www.w3.org/1999/02/22-rdf-syntax-ns#"
   xmlns:svg="http://www.w3.org/2000/svg"
   xmlns="http://www.w3.org/2000/svg"
   version="1.1"
   id="svg2"
   viewBox="0 0 141.73228 141.73228"
   height="40mm"
   width="40mm">
  <defs
     id="defs4" />
  <metadata
     id="metadata7">
    <rdf:RDF>
      <cc:Work
         rdf:about="">
        <dc:format>image/svg+xml</dc:format>
        <dc:type
           rdf:resource="http://purl.org/dc/dcmitype/StillImage" />
        <dc:title></dc:title>
      </cc:Work>
    </rdf:RDF>
  </metadata>
  <g
     transform="translate(0,-910.62992)"
     id="layer1">
    <rect
       y="937.45734"
       x="13.384521"
       height="87.378197"
       width="104.55079"
       id="rect4136"
       style="fill:none;fill-opacity:1;fill-rule:evenodd;stroke-width:12;stroke-miterlimit:4;stroke-dasharray:none" />
    <rect
       y="934.67944"
       x="13.637059"
       height="65.154839"
       width="84.34774"
       id="rect4138"
       style="fill:none;fill-opacity:1;fill-rule:evenodd;stroke-width:12;stroke-miterlimit:4;stroke-dasharray:none" />
    <rect
       y="941.75049"
       x="21.465742"
       height="104.04572"
       width="104.04572"
       id="rect4140"
       style="fill:none;fill-opacity:1;fill-rule:evenodd;stroke-width:12;stroke-miterlimit:4;stroke-dasharray:none" />
    <path
       id="path4152"
       d="m 8.9496692,1018.8856 0,-82.5414 123.8121308,0 0,82.5414 z"
       style="fill:#d3e9e9;fill-opacity:1;fill-rule:evenodd;stroke:#8a0d0d;stroke-width:5.31496048;stroke-linecap:butt;stroke-linejoin:miter;stroke-miterlimit:4;stroke-dasharray:none;stroke-opacity:1" />
    <path
       id="path4156"
       d="m 59.78022,985.20231 22.380685,0.0114 0,15.09849 c 0,0 0,15.1198 13.431371,15.1198 l 8.954254,0 0,-15.1198 22.38562,25.1995 -22.38562,25.1996 0.0198,-15.1142 -20.188222,0.075 c -13.337981,-0.034 -13.357382,-15.1859 -13.357382,-15.1859 0,0 0.0194,15.1519 -13.712173,15.0916 l -19.899138,0.031 0,15.1197 -22.415186,-25.1737 22.395492,-25.2441 0,15.1197 8.954248,0 c 13.431372,-10e-5 13.422985,-15.1106 13.422985,-15.1106 z"
       style="fill:#9acdfb;fill-opacity:1;fill-rule:evenodd;stroke:#077ae5;stroke-width:3.54330709;stroke-linecap:butt;stroke-linejoin:round;stroke-opacity:1;stroke-miterlimit:4;stroke-dasharray:none" />
    <path
       id="path4189"
       d="M 8.9272231,936.39669 70.887454,969.63071 132.40574,936.57347"
       style="fill:none;fill-rule:evenodd;stroke:#8a0d0d;stroke-width:5.31496063;stroke-linecap:butt;stroke-linejoin:miter;stroke-opacity:1;stroke-miterlimit:4;stroke-dasharray:none" />
  </g>
</svg>
